<svg width="60" height="60" viewBox="0 0 60 60" fill="none" xmlns="http://www.w3.org/2000/svg">
<rect width="60" height="60" rx="12" fill="#3A3B3F"/>
<path d="M11.0469 12.9397C10.7519 11.9705 11.9195 11.2275 12.6725 11.9053L29.7148 27.2433C29.8984 27.4086 30.1367 27.5 30.3837 27.5H32.569C32.8441 27.5 33.1071 27.3866 33.296 27.1866L46.7951 12.8935C47.5352 12.1098 48.8207 12.8905 48.4666 13.9086L46.0487 20.8601C46.0164 20.9529 45.9706 21.0404 45.9129 21.1198L38.5217 31.2826C38.224 31.692 38.2791 32.2592 38.65 32.6036L44.8409 38.3523C44.9457 38.4496 45.0285 38.5683 45.0835 38.7004L48.4174 46.7018C48.8205 47.6693 47.6529 48.5263 46.8507 47.8517L28.279 32.2346C28.0988 32.0831 27.8709 32 27.6354 32H25.9668C25.6709 32 25.3902 32.131 25.2002 32.3578L12.9811 46.942C12.2896 47.7673 10.9613 47.0669 11.2516 46.0301L13.4666 38.1191C13.4888 38.04 13.5206 37.9639 13.5614 37.8926L19.1365 28.1361C19.3529 27.7574 19.2989 27.2822 19.0031 26.9617L13.6552 21.1682C13.5531 21.0575 13.4772 20.9252 13.4334 20.7811L11.0469 12.9397Z" fill="#97CAE4"/>
</svg>
